<svg width="20" height="18" viewBox="0 0 20 18" fill="none" xmlns="http://www.w3.org/2000/svg">
<g id="camera">
<path id="Rectangle 29 (Stroke)" fill-rule="evenodd" clip-rule="evenodd" d="M8.23607 1.5C7.66791 1.5 7.14852 1.821 6.89443 2.32918L6.5 3.11803C6.07652 3.96499 5.21086 4.5 4.26393 4.5H3C2.17157 4.5 1.5 5.17157 1.5 6V15C1.5 15.8284 2.17157 16.5 3 16.5H17C17.8284 16.5 18.5 15.8284 18.5 15V6C18.5 5.17157 17.8284 4.5 17 4.5H15.7361C14.7891 4.5 13.9235 3.96499 13.5 3.11803L13.1056 2.32918C12.8515 1.821 12.3321 1.5 11.7639 1.5H8.23607ZM6 1.88197C6.42348 1.03501 7.28914 0.5 8.23607 0.5H11.7639C12.7109 0.5 13.5765 1.03501 14 1.88197L14.3944 2.67082C14.6485 3.179 15.1679 3.5 15.7361 3.5H17C18.3807 3.5 19.5 4.61929 19.5 6V15C19.5 16.3807 18.3807 17.5 17 17.5H3C1.61929 17.5 0.5 16.3807 0.5 15V6C0.5 4.61929 1.61929 3.5 3 3.5H4.26393C4.83209 3.5 5.35148 3.179 5.60557 2.67082L6 1.88197Z" fill="black"/>
<path id="Ellipse 21 (Stroke)" fill-rule="evenodd" clip-rule="evenodd" d="M10 6.5C8.067 6.5 6.5 8.067 6.5 10C6.5 11.933 8.067 13.5 10 13.5C11.933 13.5 13.5 11.933 13.5 10C13.5 8.067 11.933 6.5 10 6.5ZM5.5 10C5.5 7.51472 7.51472 5.5 10 5.5C12.4853 5.5 14.5 7.51472 14.5 10C14.5 12.4853 12.4853 14.5 10 14.5C7.51472 14.5 5.5 12.4853 5.5 10Z" fill="black"/>
</g>
</svg>
