<svg width="14" height="13" viewBox="0 0 14 13" fill="none" xmlns="http://www.w3.org/2000/svg">
<g id="favorite 1">
<path id="Star 3" d="M6.28704 0.944994C6.51155 0.254011 7.48911 0.254013 7.71362 0.944996L8.68419 3.93208C8.78459 4.2411 9.07256 4.45032 9.39748 4.45032H12.5383C13.2648 4.45032 13.5669 5.38003 12.9791 5.80708L10.4382 7.6532C10.1753 7.84418 10.0653 8.18271 10.1657 8.49173L11.1363 11.4788C11.3608 12.1698 10.5699 12.7444 9.98213 12.3173L7.44117 10.4712C7.1783 10.2802 6.82236 10.2802 6.55949 10.4712L4.01852 12.3173C3.43074 12.7444 2.63988 12.1698 2.86439 11.4788L3.83496 8.49173C3.93536 8.18271 3.82537 7.84418 3.5625 7.6532L1.02154 5.80708C0.433751 5.38003 0.735834 4.45032 1.46238 4.45032H4.60318C4.9281 4.45032 5.21607 4.2411 5.31647 3.93208L6.28704 0.944994Z" fill="#FFB800"/>
</g>
</svg>
