<svg width="28" height="28" viewBox="0 0 28 28" fill="none" xmlns="http://www.w3.org/2000/svg">
<path d="M12.8888 4.58154C13.238 3.50667 14.7587 3.50668 15.1079 4.58154L16.6177 9.22811C16.7739 9.70881 17.2218 10.0343 17.7272 10.0343H22.6129C23.7431 10.0343 24.213 11.4805 23.2987 12.1448L19.3461 15.0165C18.9372 15.3136 18.7661 15.8402 18.9223 16.3209L20.432 20.9675C20.7813 22.0423 19.551 22.9361 18.6367 22.2718L14.6841 19.4001C14.2752 19.103 13.7215 19.103 13.3126 19.4001L9.35998 22.2718C8.44564 22.9361 7.21542 22.0423 7.56466 20.9675L9.07443 16.3209C9.23061 15.8402 9.05951 15.3136 8.65061 15.0165L4.698 12.1448C3.78366 11.4805 4.25357 10.0343 5.38375 10.0343H10.2694C10.7749 10.0343 11.2228 9.70881 11.379 9.22811L12.8888 4.58154Z" fill="#FFB800"/>
</svg>
