<svg width="12" height="14" viewBox="0 0 12 14" fill="none" xmlns="http://www.w3.org/2000/svg">
<g id="setting 1">
<g id="Vector 37">
<path d="M0 3H2.33333M12 3H5.66667" stroke="#7D7D7D" stroke-linejoin="round"/>
<path d="M0 3H2.33333M12 3H5.66667" stroke="black" stroke-opacity="0.2" stroke-linejoin="round"/>
<path d="M0 3H2.33333M12 3H5.66667" stroke="black" stroke-opacity="0.2" stroke-linejoin="round"/>
<path d="M0 3H2.33333M12 3H5.66667" stroke="black" stroke-opacity="0.2" stroke-linejoin="round"/>
</g>
<g id="Ellipse 18">
<circle cx="3.9987" cy="2.99967" r="1.66667" stroke="#7D7D7D" stroke-linejoin="round"/>
<circle cx="3.9987" cy="2.99967" r="1.66667" stroke="black" stroke-opacity="0.2" stroke-linejoin="round"/>
<circle cx="3.9987" cy="2.99967" r="1.66667" stroke="black" stroke-opacity="0.2" stroke-linejoin="round"/>
<circle cx="3.9987" cy="2.99967" r="1.66667" stroke="black" stroke-opacity="0.2" stroke-linejoin="round"/>
</g>
<g id="Vector 37_2">
<path d="M12 7H10.6667M-3.57628e-07 7H7.33333" stroke="#7D7D7D" stroke-linejoin="round"/>
<path d="M12 7H10.6667M-3.57628e-07 7H7.33333" stroke="black" stroke-opacity="0.2" stroke-linejoin="round"/>
<path d="M12 7H10.6667M-3.57628e-07 7H7.33333" stroke="black" stroke-opacity="0.2" stroke-linejoin="round"/>
<path d="M12 7H10.6667M-3.57628e-07 7H7.33333" stroke="black" stroke-opacity="0.2" stroke-linejoin="round"/>
</g>
<g id="Ellipse 18_2">
<circle cx="1.66667" cy="1.66667" r="1.66667" transform="matrix(-1 0 0 1 10.668 5.33301)" stroke="#7D7D7D" stroke-linejoin="round"/>
<circle cx="1.66667" cy="1.66667" r="1.66667" transform="matrix(-1 0 0 1 10.668 5.33301)" stroke="black" stroke-opacity="0.2" stroke-linejoin="round"/>
<circle cx="1.66667" cy="1.66667" r="1.66667" transform="matrix(-1 0 0 1 10.668 5.33301)" stroke="black" stroke-opacity="0.2" stroke-linejoin="round"/>
<circle cx="1.66667" cy="1.66667" r="1.66667" transform="matrix(-1 0 0 1 10.668 5.33301)" stroke="black" stroke-opacity="0.2" stroke-linejoin="round"/>
</g>
<g id="Vector 37_3">
<path d="M0 11H3.33333M12 11H6.66667" stroke="#7D7D7D" stroke-linejoin="round"/>
<path d="M0 11H3.33333M12 11H6.66667" stroke="black" stroke-opacity="0.2" stroke-linejoin="round"/>
<path d="M0 11H3.33333M12 11H6.66667" stroke="black" stroke-opacity="0.2" stroke-linejoin="round"/>
<path d="M0 11H3.33333M12 11H6.66667" stroke="black" stroke-opacity="0.2" stroke-linejoin="round"/>
</g>
<g id="Ellipse 18_3">
<circle cx="4.9987" cy="10.9997" r="1.66667" stroke="#7D7D7D" stroke-linejoin="round"/>
<circle cx="4.9987" cy="10.9997" r="1.66667" stroke="black" stroke-opacity="0.2" stroke-linejoin="round"/>
<circle cx="4.9987" cy="10.9997" r="1.66667" stroke="black" stroke-opacity="0.2" stroke-linejoin="round"/>
<circle cx="4.9987" cy="10.9997" r="1.66667" stroke="black" stroke-opacity="0.2" stroke-linejoin="round"/>
</g>
</g>
</svg>
