<svg width="24" height="24" viewBox="0 0 24 24" fill="none" xmlns="http://www.w3.org/2000/svg">
<path fill-rule="evenodd" clip-rule="evenodd" d="M10.4232 14.3648L9.93461 16.3509L14.6193 21.0356C15.1988 21.6151 16.1596 21.3788 16.3487 20.6101L19.8941 6.19831C20.0832 5.42968 19.3587 4.70525 18.5901 4.89434L4.17829 8.43975C3.40966 8.62883 3.1733 9.58963 3.75284 10.1692L8.43708 14.8534L10.4232 14.3648ZM8.86253 13.124L12.5781 12.2099L11.664 15.9255L15.0447 19.3062L18.1647 6.62376L5.48226 9.74372L8.86253 13.124Z" fill="#7D7D7D"/>
<path fill-rule="evenodd" clip-rule="evenodd" d="M10.4232 14.3648L9.93461 16.3509L14.6193 21.0356C15.1988 21.6151 16.1596 21.3788 16.3487 20.6101L19.8941 6.19831C20.0832 5.42968 19.3587 4.70525 18.5901 4.89434L4.17829 8.43975C3.40966 8.62883 3.1733 9.58963 3.75284 10.1692L8.43708 14.8534L10.4232 14.3648ZM8.86253 13.124L12.5781 12.2099L11.664 15.9255L15.0447 19.3062L18.1647 6.62376L5.48226 9.74372L8.86253 13.124Z" fill="black" fill-opacity="0.2"/>
<path fill-rule="evenodd" clip-rule="evenodd" d="M10.4232 14.3648L9.93461 16.3509L14.6193 21.0356C15.1988 21.6151 16.1596 21.3788 16.3487 20.6101L19.8941 6.19831C20.0832 5.42968 19.3587 4.70525 18.5901 4.89434L4.17829 8.43975C3.40966 8.62883 3.1733 9.58963 3.75284 10.1692L8.43708 14.8534L10.4232 14.3648ZM8.86253 13.124L12.5781 12.2099L11.664 15.9255L15.0447 19.3062L18.1647 6.62376L5.48226 9.74372L8.86253 13.124Z" fill="black" fill-opacity="0.2"/>
<path fill-rule="evenodd" clip-rule="evenodd" d="M10.4232 14.3648L9.93461 16.3509L14.6193 21.0356C15.1988 21.6151 16.1596 21.3788 16.3487 20.6101L19.8941 6.19831C20.0832 5.42968 19.3587 4.70525 18.5901 4.89434L4.17829 8.43975C3.40966 8.62883 3.1733 9.58963 3.75284 10.1692L8.43708 14.8534L10.4232 14.3648ZM8.86253 13.124L12.5781 12.2099L11.664 15.9255L15.0447 19.3062L18.1647 6.62376L5.48226 9.74372L8.86253 13.124Z" fill="black" fill-opacity="0.2"/>
<path fill-rule="evenodd" clip-rule="evenodd" d="M13.5264 10.2002L18.5547 5.17188L19.6153 6.23254L14.587 11.2608C14.2399 11.608 13.7211 11.652 13.4282 11.3591C13.1353 11.0662 13.1792 10.5473 13.5264 10.2002Z" fill="#7D7D7D"/>
<path fill-rule="evenodd" clip-rule="evenodd" d="M13.5264 10.2002L18.5547 5.17188L19.6153 6.23254L14.587 11.2608C14.2399 11.608 13.7211 11.652 13.4282 11.3591C13.1353 11.0662 13.1792 10.5473 13.5264 10.2002Z" fill="black" fill-opacity="0.2"/>
<path fill-rule="evenodd" clip-rule="evenodd" d="M13.5264 10.2002L18.5547 5.17188L19.6153 6.23254L14.587 11.2608C14.2399 11.608 13.7211 11.652 13.4282 11.3591C13.1353 11.0662 13.1792 10.5473 13.5264 10.2002Z" fill="black" fill-opacity="0.2"/>
<path fill-rule="evenodd" clip-rule="evenodd" d="M13.5264 10.2002L18.5547 5.17188L19.6153 6.23254L14.587 11.2608C14.2399 11.608 13.7211 11.652 13.4282 11.3591C13.1353 11.0662 13.1792 10.5473 13.5264 10.2002Z" fill="black" fill-opacity="0.2"/>
</svg>
