<svg width="24" height="24" viewBox="0 0 24 24" fill="none" xmlns="http://www.w3.org/2000/svg">
<path d="M11.1911 18.2866L11.19 18.2856C8.85704 16.2361 6.98265 14.5876 5.68245 13.0475C4.39006 11.5167 3.75 10.1894 3.75 8.79564C3.75 6.54651 5.56964 4.75 7.95 4.75C9.12419 4.75 10.2645 5.21434 11.0965 5.97164L11.6013 5.417L11.0965 5.97164C11.6057 6.43514 12.3943 6.43514 12.9035 5.97164C13.7355 5.21434 14.8758 4.75 16.05 4.75C18.4304 4.75 20.25 6.54651 20.25 8.79564C20.25 10.1894 19.6099 11.5168 18.3174 13.0488C17.0172 14.5899 15.143 16.2404 12.8102 18.2941C12.8099 18.2944 12.8097 18.2946 12.8094 18.2948L12.0019 19.0016L11.1911 18.2866ZM12.1666 19.1469L12.1662 19.1466L12.1666 19.1469Z" stroke="#404040" stroke-width="1.5"/>
</svg>
