<svg width="24" height="24" viewBox="0 0 24 24" fill="none" xmlns="http://www.w3.org/2000/svg">
<rect width="24" height="24" fill="white"/>
<path d="M7.02221 19.2504H4.75V16.9782L13.8297 7.89844L16.102 10.1707L7.02221 19.2504ZM17.4458 4.58718L19.4136 6.55499C19.4132 6.5817 19.4096 6.62145 19.398 6.67374C19.3803 6.75313 19.3491 6.8382 19.3094 6.91502C19.2684 6.99431 19.2297 7.04287 19.2097 7.0629L18.1136 8.15901L15.8414 5.8868L16.9375 4.79069C16.9574 4.7708 17.0058 4.73222 17.0851 4.69128C17.162 4.65163 17.2471 4.62049 17.3265 4.60282C17.3791 4.59113 17.419 4.58755 17.4458 4.58718Z" stroke="#7D7D7D" stroke-width="1.5"/>
<path d="M7.02221 19.2504H4.75V16.9782L13.8297 7.89844L16.102 10.1707L7.02221 19.2504ZM17.4458 4.58718L19.4136 6.55499C19.4132 6.5817 19.4096 6.62145 19.398 6.67374C19.3803 6.75313 19.3491 6.8382 19.3094 6.91502C19.2684 6.99431 19.2297 7.04287 19.2097 7.0629L18.1136 8.15901L15.8414 5.8868L16.9375 4.79069C16.9574 4.7708 17.0058 4.73222 17.0851 4.69128C17.162 4.65163 17.2471 4.62049 17.3265 4.60282C17.3791 4.59113 17.419 4.58755 17.4458 4.58718Z" stroke="black" stroke-opacity="0.2" stroke-width="1.5"/>
<path d="M7.02221 19.2504H4.75V16.9782L13.8297 7.89844L16.102 10.1707L7.02221 19.2504ZM17.4458 4.58718L19.4136 6.55499C19.4132 6.5817 19.4096 6.62145 19.398 6.67374C19.3803 6.75313 19.3491 6.8382 19.3094 6.91502C19.2684 6.99431 19.2297 7.04287 19.2097 7.0629L18.1136 8.15901L15.8414 5.8868L16.9375 4.79069C16.9574 4.7708 17.0058 4.73222 17.0851 4.69128C17.162 4.65163 17.2471 4.62049 17.3265 4.60282C17.3791 4.59113 17.419 4.58755 17.4458 4.58718Z" stroke="black" stroke-opacity="0.2" stroke-width="1.5"/>
<path d="M7.02221 19.2504H4.75V16.9782L13.8297 7.89844L16.102 10.1707L7.02221 19.2504ZM17.4458 4.58718L19.4136 6.55499C19.4132 6.5817 19.4096 6.62145 19.398 6.67374C19.3803 6.75313 19.3491 6.8382 19.3094 6.91502C19.2684 6.99431 19.2297 7.04287 19.2097 7.0629L18.1136 8.15901L15.8414 5.8868L16.9375 4.79069C16.9574 4.7708 17.0058 4.73222 17.0851 4.69128C17.162 4.65163 17.2471 4.62049 17.3265 4.60282C17.3791 4.59113 17.419 4.58755 17.4458 4.58718Z" stroke="black" stroke-opacity="0.2" stroke-width="1.5"/>
</svg>
