<svg width="24" height="24" viewBox="0 0 24 24" fill="none" xmlns="http://www.w3.org/2000/svg">
<path fill-rule="evenodd" clip-rule="evenodd" d="M8.56667 3C8.25371 3 8 3.33579 8 3.75C8 4.16421 8.25371 4.5 8.56667 4.5H14.2333C14.5463 4.5 14.8 4.16421 14.8 3.75C14.8 3.33579 14.5463 3 14.2333 3H8.56667ZM4.59211 4.97852C4.26509 4.97852 4 5.3143 4 5.72852C4 6.14273 4.26509 6.47852 4.59211 6.47852H18.4079C18.7349 6.47852 19 6.14273 19 5.72852C19 5.3143 18.7349 4.97852 18.4079 4.97852H4.59211ZM8.59922 7.94531C8.93059 7.94531 9.19922 8.18516 9.19922 8.48103L9.19922 17.4096C9.19922 17.7055 8.93059 17.9453 8.59922 17.9453C8.26785 17.9453 7.99922 17.7055 7.99922 17.4096L7.99922 8.48103C7.99922 8.18516 8.26785 7.94531 8.59922 7.94531ZM11.9609 8.48103C11.9609 8.18516 11.6923 7.94531 11.3609 7.94531C11.0296 7.94531 10.7609 8.18516 10.7609 8.48103V17.4096C10.7609 17.7055 11.0296 17.9453 11.3609 17.9453C11.6923 17.9453 11.9609 17.7055 11.9609 17.4096L11.9609 8.48103ZM14.1266 7.94531C14.4579 7.94531 14.7266 8.18516 14.7266 8.48103V17.4096C14.7266 17.7055 14.4579 17.9453 14.1266 17.9453C13.7952 17.9453 13.5266 17.7055 13.5266 17.4096L13.5266 8.48103C13.5266 8.18516 13.7952 7.94531 14.1266 7.94531ZM6.18024 7.54801C6.1562 7.22219 5.87288 6.97757 5.54742 7.00163C5.22195 7.02569 4.9776 7.30932 5.00163 7.63514L5.94708 20.452C5.96987 20.761 6.22692 21 6.53638 21H16.4636C16.7731 21 17.0301 20.761 17.0529 20.452L17.9984 7.63514C18.0224 7.30932 17.778 7.02569 17.4526 7.00163C17.1271 6.97757 16.8438 7.22219 16.8198 7.54801L15.9147 19.8169H7.08526L6.18024 7.54801Z" fill="#7D7D7D"/>
<path fill-rule="evenodd" clip-rule="evenodd" d="M8.56667 3C8.25371 3 8 3.33579 8 3.75C8 4.16421 8.25371 4.5 8.56667 4.5H14.2333C14.5463 4.5 14.8 4.16421 14.8 3.75C14.8 3.33579 14.5463 3 14.2333 3H8.56667ZM4.59211 4.97852C4.26509 4.97852 4 5.3143 4 5.72852C4 6.14273 4.26509 6.47852 4.59211 6.47852H18.4079C18.7349 6.47852 19 6.14273 19 5.72852C19 5.3143 18.7349 4.97852 18.4079 4.97852H4.59211ZM8.59922 7.94531C8.93059 7.94531 9.19922 8.18516 9.19922 8.48103L9.19922 17.4096C9.19922 17.7055 8.93059 17.9453 8.59922 17.9453C8.26785 17.9453 7.99922 17.7055 7.99922 17.4096L7.99922 8.48103C7.99922 8.18516 8.26785 7.94531 8.59922 7.94531ZM11.9609 8.48103C11.9609 8.18516 11.6923 7.94531 11.3609 7.94531C11.0296 7.94531 10.7609 8.18516 10.7609 8.48103V17.4096C10.7609 17.7055 11.0296 17.9453 11.3609 17.9453C11.6923 17.9453 11.9609 17.7055 11.9609 17.4096L11.9609 8.48103ZM14.1266 7.94531C14.4579 7.94531 14.7266 8.18516 14.7266 8.48103V17.4096C14.7266 17.7055 14.4579 17.9453 14.1266 17.9453C13.7952 17.9453 13.5266 17.7055 13.5266 17.4096L13.5266 8.48103C13.5266 8.18516 13.7952 7.94531 14.1266 7.94531ZM6.18024 7.54801C6.1562 7.22219 5.87288 6.97757 5.54742 7.00163C5.22195 7.02569 4.9776 7.30932 5.00163 7.63514L5.94708 20.452C5.96987 20.761 6.22692 21 6.53638 21H16.4636C16.7731 21 17.0301 20.761 17.0529 20.452L17.9984 7.63514C18.0224 7.30932 17.778 7.02569 17.4526 7.00163C17.1271 6.97757 16.8438 7.22219 16.8198 7.54801L15.9147 19.8169H7.08526L6.18024 7.54801Z" fill="black" fill-opacity="0.2"/>
<path fill-rule="evenodd" clip-rule="evenodd" d="M8.56667 3C8.25371 3 8 3.33579 8 3.75C8 4.16421 8.25371 4.5 8.56667 4.5H14.2333C14.5463 4.5 14.8 4.16421 14.8 3.75C14.8 3.33579 14.5463 3 14.2333 3H8.56667ZM4.59211 4.97852C4.26509 4.97852 4 5.3143 4 5.72852C4 6.14273 4.26509 6.47852 4.59211 6.47852H18.4079C18.7349 6.47852 19 6.14273 19 5.72852C19 5.3143 18.7349 4.97852 18.4079 4.97852H4.59211ZM8.59922 7.94531C8.93059 7.94531 9.19922 8.18516 9.19922 8.48103L9.19922 17.4096C9.19922 17.7055 8.93059 17.9453 8.59922 17.9453C8.26785 17.9453 7.99922 17.7055 7.99922 17.4096L7.99922 8.48103C7.99922 8.18516 8.26785 7.94531 8.59922 7.94531ZM11.9609 8.48103C11.9609 8.18516 11.6923 7.94531 11.3609 7.94531C11.0296 7.94531 10.7609 8.18516 10.7609 8.48103V17.4096C10.7609 17.7055 11.0296 17.9453 11.3609 17.9453C11.6923 17.9453 11.9609 17.7055 11.9609 17.4096L11.9609 8.48103ZM14.1266 7.94531C14.4579 7.94531 14.7266 8.18516 14.7266 8.48103V17.4096C14.7266 17.7055 14.4579 17.9453 14.1266 17.9453C13.7952 17.9453 13.5266 17.7055 13.5266 17.4096L13.5266 8.48103C13.5266 8.18516 13.7952 7.94531 14.1266 7.94531ZM6.18024 7.54801C6.1562 7.22219 5.87288 6.97757 5.54742 7.00163C5.22195 7.02569 4.9776 7.30932 5.00163 7.63514L5.94708 20.452C5.96987 20.761 6.22692 21 6.53638 21H16.4636C16.7731 21 17.0301 20.761 17.0529 20.452L17.9984 7.63514C18.0224 7.30932 17.778 7.02569 17.4526 7.00163C17.1271 6.97757 16.8438 7.22219 16.8198 7.54801L15.9147 19.8169H7.08526L6.18024 7.54801Z" fill="black" fill-opacity="0.2"/>
<path fill-rule="evenodd" clip-rule="evenodd" d="M8.56667 3C8.25371 3 8 3.33579 8 3.75C8 4.16421 8.25371 4.5 8.56667 4.5H14.2333C14.5463 4.5 14.8 4.16421 14.8 3.75C14.8 3.33579 14.5463 3 14.2333 3H8.56667ZM4.59211 4.97852C4.26509 4.97852 4 5.3143 4 5.72852C4 6.14273 4.26509 6.47852 4.59211 6.47852H18.4079C18.7349 6.47852 19 6.14273 19 5.72852C19 5.3143 18.7349 4.97852 18.4079 4.97852H4.59211ZM8.59922 7.94531C8.93059 7.94531 9.19922 8.18516 9.19922 8.48103L9.19922 17.4096C9.19922 17.7055 8.93059 17.9453 8.59922 17.9453C8.26785 17.9453 7.99922 17.7055 7.99922 17.4096L7.99922 8.48103C7.99922 8.18516 8.26785 7.94531 8.59922 7.94531ZM11.9609 8.48103C11.9609 8.18516 11.6923 7.94531 11.3609 7.94531C11.0296 7.94531 10.7609 8.18516 10.7609 8.48103V17.4096C10.7609 17.7055 11.0296 17.9453 11.3609 17.9453C11.6923 17.9453 11.9609 17.7055 11.9609 17.4096L11.9609 8.48103ZM14.1266 7.94531C14.4579 7.94531 14.7266 8.18516 14.7266 8.48103V17.4096C14.7266 17.7055 14.4579 17.9453 14.1266 17.9453C13.7952 17.9453 13.5266 17.7055 13.5266 17.4096L13.5266 8.48103C13.5266 8.18516 13.7952 7.94531 14.1266 7.94531ZM6.18024 7.54801C6.1562 7.22219 5.87288 6.97757 5.54742 7.00163C5.22195 7.02569 4.9776 7.30932 5.00163 7.63514L5.94708 20.452C5.96987 20.761 6.22692 21 6.53638 21H16.4636C16.7731 21 17.0301 20.761 17.0529 20.452L17.9984 7.63514C18.0224 7.30932 17.778 7.02569 17.4526 7.00163C17.1271 6.97757 16.8438 7.22219 16.8198 7.54801L15.9147 19.8169H7.08526L6.18024 7.54801Z" fill="black" fill-opacity="0.2"/>
</svg>
