<svg width="62" height="16" viewBox="0 0 62 16" fill="none" xmlns="http://www.w3.org/2000/svg">
<path d="M2.56164 4.88C1.89497 4.88 1.34831 4.68667 0.921641 4.3C0.508308 3.91333 0.301641 3.38 0.301641 2.7C0.301641 2.03333 0.488308 1.5 0.861641 1.1C1.24831 0.686666 1.81497 0.48 2.56164 0.48H11.1816C11.9283 0.48 12.4883 0.686666 12.8616 1.1C13.2483 1.5 13.4416 2.03333 13.4416 2.7C13.4416 3.38 13.2283 3.91333 12.8016 4.3C12.3883 4.68667 11.8483 4.88 11.1816 4.88C10.7283 4.88 10.3616 4.83333 10.0816 4.74C9.81497 4.63333 9.59497 4.51333 9.42164 4.38C9.24831 4.23333 9.08164 4.11333 8.92164 4.02C8.76164 3.91333 8.56164 3.86 8.32164 3.86L8.14164 4.22C8.19498 4.34 8.28831 4.51333 8.42164 4.74C8.55497 4.95333 8.68164 5.26667 8.80164 5.68C8.92164 6.08 8.98164 6.62667 8.98164 7.32V13.1C8.98164 13.6467 8.77497 14.1 8.36164 14.46C7.96164 14.82 7.46831 15 6.88164 15C6.28164 15 5.77497 14.82 5.36164 14.46C4.96164 14.1 4.76164 13.6467 4.76164 13.1V7.32C4.76164 6.62667 4.82164 6.08 4.94164 5.68C5.06164 5.26667 5.18831 4.95333 5.32164 4.74C5.46831 4.51333 5.56831 4.34 5.62164 4.22L5.42164 3.86C5.18164 3.86 4.98164 3.91333 4.82164 4.02C4.66164 4.11333 4.49497 4.23333 4.32164 4.38C4.14831 4.51333 3.92831 4.63333 3.66164 4.74C3.39497 4.83333 3.02831 4.88 2.56164 4.88ZM23.8363 15C23.1697 15 22.643 14.8 22.2563 14.4C21.8697 13.9867 21.663 13.4533 21.6363 12.8C21.583 11.6667 21.2963 10.8667 20.7763 10.4C20.2697 9.92 19.5897 9.68 18.7363 9.68H18.3363V12.88C18.3363 13.5733 18.1497 14.1 17.7763 14.46C17.403 14.82 16.9097 15 16.2963 15C15.643 15 15.1297 14.82 14.7563 14.46C14.383 14.1 14.1963 13.5733 14.1963 12.88V10.06C14.1963 8.64667 14.403 7.57333 14.8163 6.84C15.243 6.10667 15.783 5.58 16.4363 5.26L16.3363 4.88H16.0163C15.403 4.88 14.9163 4.68667 14.5563 4.3C14.2097 3.9 14.023 3.36 13.9963 2.68C13.983 2.01333 14.163 1.47333 14.5363 1.06C14.9097 0.646666 15.403 0.439999 16.0163 0.439999H21.1163C22.543 0.439999 23.6963 0.786666 24.5763 1.48C25.4563 2.17333 25.8963 3.28 25.8963 4.8C25.8963 5.58667 25.763 6.24667 25.4963 6.78C25.2297 7.3 24.8897 7.7 24.4763 7.98C24.063 8.26 23.6297 8.42667 23.1763 8.48V8.74C24.003 8.94 24.683 9.38 25.2163 10.06C25.763 10.74 26.0363 11.6533 26.0363 12.8C26.0363 13.5333 25.8363 14.0867 25.4363 14.46C25.0497 14.82 24.5163 15 23.8363 15ZM18.2363 6.62C18.2363 6.91333 18.2897 7.10667 18.3963 7.2C18.503 7.29333 18.703 7.34 18.9963 7.34H20.8763C21.4363 7.34 21.843 7.21333 22.0963 6.96C22.3497 6.70667 22.4763 6.35333 22.4763 5.9C22.4763 5.43333 22.3497 5.07333 22.0963 4.82C21.843 4.56667 21.4363 4.44 20.8763 4.44H18.9963C18.703 4.44 18.503 4.48 18.3963 4.56C18.2897 4.64 18.2363 4.83333 18.2363 5.14V6.62ZM28.8079 15.04C28.1946 15.04 27.6946 14.8533 27.3079 14.48C26.9212 14.1067 26.7279 13.6333 26.7279 13.06V2.48C26.7279 1.89333 26.9146 1.4 27.2879 0.999999C27.6746 0.599999 28.1812 0.4 28.8079 0.4C29.4746 0.4 29.9946 0.599999 30.3679 0.999999C30.7546 1.38667 30.9479 1.86667 30.9479 2.44V13.06C30.9479 13.6333 30.7412 14.1067 30.3279 14.48C29.9279 14.8533 29.4212 15.04 28.8079 15.04ZM34.0557 15C33.3624 15 32.849 14.7933 32.5157 14.38C32.1824 13.9667 32.0157 13.4133 32.0157 12.72V3.4C32.0157 2.38667 32.289 1.64 32.8357 1.16C33.3957 0.679999 34.0624 0.439999 34.8357 0.439999C35.569 0.439999 36.189 0.679999 36.6957 1.16C37.2157 1.64 37.5957 2.4 37.8357 3.44L39.3957 10.22H39.9157L41.4757 3.44C41.7157 2.4 42.0957 1.64 42.6157 1.16C43.149 0.679999 43.7824 0.439999 44.5157 0.439999C45.289 0.439999 45.949 0.679999 46.4957 1.16C47.0557 1.64 47.3357 2.38667 47.3357 3.4V12.72C47.3357 13.4133 47.1624 13.9667 46.8157 14.38C46.4824 14.7933 45.969 15 45.2757 15C44.609 15 44.0957 14.7933 43.7357 14.38C43.3757 13.9667 43.1957 13.4133 43.1957 12.72V7.34C43.1957 7.20667 43.1757 7.08667 43.1357 6.98C43.109 6.86 43.0224 6.8 42.8757 6.8C42.7557 6.8 42.669 6.86 42.6157 6.98C42.5624 7.08667 42.5224 7.20667 42.4957 7.34L41.7357 12.38C41.6424 12.9267 41.529 13.4 41.3957 13.8C41.2757 14.1867 41.0824 14.4867 40.8157 14.7C40.549 14.9 40.1624 15 39.6557 15C39.1624 15 38.7757 14.9 38.4957 14.7C38.229 14.4867 38.029 14.1867 37.8957 13.8C37.7757 13.4 37.6757 12.9267 37.5957 12.38L36.8157 7.34C36.8024 7.20667 36.769 7.08667 36.7157 6.98C36.6624 6.86 36.569 6.8 36.4357 6.8C36.3024 6.8 36.2157 6.86 36.1757 6.98C36.1357 7.08667 36.1157 7.20667 36.1157 7.34V12.72C36.1157 13.4133 35.9357 13.9667 35.5757 14.38C35.229 14.7933 34.7224 15 34.0557 15ZM54.8573 15.06C53.4306 15.06 52.2239 14.7467 51.2373 14.12C50.2506 13.4933 49.5039 12.6267 48.9973 11.52C48.4906 10.4133 48.2373 9.14 48.2373 7.7C48.2373 6.27333 48.4906 5.00667 48.9973 3.9C49.5039 2.78 50.2506 1.90667 51.2373 1.28C52.2239 0.639999 53.4306 0.319999 54.8573 0.319999C56.2839 0.319999 57.4839 0.639999 58.4573 1.28C59.4439 1.90667 60.1906 2.78 60.6973 3.9C61.2039 5.00667 61.4573 6.27333 61.4573 7.7C61.4573 9.14 61.2039 10.4133 60.6973 11.52C60.1906 12.6267 59.4439 13.4933 58.4573 14.12C57.4839 14.7467 56.2839 15.06 54.8573 15.06ZM50.7573 7.38C50.7573 7.79333 50.8573 8.18667 51.0573 8.56C51.2573 8.92 51.6506 9.21333 52.2373 9.44C52.8239 9.65333 53.6973 9.76 54.8573 9.76C56.0173 9.76 56.8839 9.65333 57.4573 9.44C58.0439 9.21333 58.4373 8.92 58.6373 8.56C58.8373 8.18667 58.9373 7.79333 58.9373 7.38C58.9373 6.95333 58.8373 6.57333 58.6373 6.24C58.4373 5.89333 58.0439 5.62 57.4573 5.42C56.8839 5.20667 56.0173 5.1 54.8573 5.1C53.6973 5.1 52.8239 5.20667 52.2373 5.42C51.6506 5.62 51.2573 5.89333 51.0573 6.24C50.8573 6.57333 50.7573 6.95333 50.7573 7.38Z" fill="white"/>
</svg>
