<svg xmlns="http://www.w3.org/2000/svg" xmlns:xlink="http://www.w3.org/1999/xlink" viewBox="0 0 22 22" version="1.1" x="0px" y="0px"><g stroke="none" stroke-width="1" fill="none" fill-rule="evenodd"><g fill="#000000"><path d="M11,21 C8.094,21 5.482,19.747 3.654,17.761 C5.172,15.128 7.929,13.5 11,13.5 C14.071,13.5 16.828,15.128 18.346,17.761 C16.518,19.747 13.906,21 11,21 M8,9 C8,7.346 9.346,6 11,6 C12.654,6 14,7.346 14,9 C14,10.654 12.654,12 11,12 C9.346,12 8,10.654 8,9 M11,1 C16.514,1 21,5.486 21,11 C21,13.227 20.259,15.28 19.023,16.944 C17.58,14.647 15.267,13.104 12.619,12.652 C14.02,12.03 15,10.631 15,9 C15,6.791 13.209,5 11,5 C8.791,5 7,6.791 7,9 C7,10.631 7.98,12.029 9.381,12.652 C6.733,13.104 4.42,14.647 2.977,16.944 C1.741,15.28 1,13.227 1,11 C1,5.486 5.486,1 11,1 M11,0 C4.925,0 0,4.925 0,11 C0,17.075 4.925,22 11,22 C17.075,22 22,17.075 22,11 C22,4.925 17.075,0 11,0"/></g></g></svg>